<?xml version="1.0" standalone="no"?>
<!DOCTYPE svg PUBLIC "-//W3C//DTD SVG 20010904//EN"
 "http://www.w3.org/TR/2001/REC-SVG-20010904/DTD/svg10.dtd">
<svg version="1.0" xmlns="http://www.w3.org/2000/svg"
 width="512.000000pt" height="512.000000pt" viewBox="0 0 512.000000 512.000000"
 preserveAspectRatio="xMidYMid meet">

<g transform="translate(0.000000,512.000000) scale(0.100000,-0.100000)"
fill="#FF4500" stroke="none">
<path d="M2509 5105 c-47 -25 -50 -50 -47 -339 l3 -268 28 -24 c30 -26 83 -32
118 -14 45 24 49 54 49 324 0 275 -3 297 -51 322 -35 18 -66 17 -100 -1z"/>
<path d="M1279 4775 c-31 -17 -53 -65 -47 -99 3 -13 62 -123 133 -246 107
-185 133 -224 161 -237 64 -31 139 18 138 90 -1 46 -248 473 -286 493 -34 18
-66 17 -99 -1z"/>
<path d="M3741 4776 c-16 -9 -73 -96 -155 -237 -106 -183 -129 -231 -129 -262
1 -72 76 -116 141 -83 23 12 59 66 158 237 70 122 129 232 132 245 15 78 -76
139 -147 100z"/>
<path d="M2380 4144 c-690 -87 -1237 -590 -1381 -1271 -26 -124 -36 -381 -20
-508 25 -191 101 -430 146 -459 40 -26 92 -21 126 13 38 38 37 65 -5 193 -59
175 -71 252 -71 448 1 233 34 389 126 589 157 338 479 622 834 734 160 50 238
61 425 61 187 0 265 -11 425 -61 416 -131 767 -482 898 -898 50 -160 61 -238
62 -425 0 -193 -18 -301 -76 -466 -36 -102 -37 -133 -3 -173 21 -25 33 -31 66
-31 21 0 48 5 60 11 35 19 95 181 135 369 27 129 25 468 -5 603 -142 644 -623
1121 -1262 1252 -73 16 -405 28 -480 19z"/>
<path d="M381 3876 c-47 -26 -63 -84 -37 -134 20 -38 447 -285 493 -286 44 0
86 33 97 76 17 67 -5 86 -254 229 -129 74 -235 129 -250 129 -14 -1 -36 -7
-49 -14z"/>
<path d="M4437 3759 c-176 -102 -231 -138 -243 -161 -33 -65 11 -140 83 -141
31 0 80 24 261 129 225 130 252 151 252 203 0 53 -49 101 -102 101 -13 0 -126
-59 -251 -131z"/>
<path d="M51 2646 c-47 -26 -63 -84 -37 -135 25 -48 47 -51 322 -51 270 0 300
4 324 49 18 35 12 88 -14 118 l-24 28 -274 2 c-214 2 -278 0 -297 -11z"/>
<path d="M4504 2650 c-47 -19 -69 -92 -44 -141 24 -45 54 -49 325 -49 278 0
300 4 323 55 15 33 15 57 0 90 -23 52 -45 55 -325 54 -142 0 -268 -4 -279 -9z"/>
<path d="M394 1730 c-12 -4 -31 -21 -44 -37 -29 -37 -23 -98 15 -130 l26 -23
2169 0 2169 0 26 23 c17 14 28 36 32 63 5 36 1 46 -25 75 l-30 34 -2159 2
c-1187 1 -2168 -2 -2179 -7z"/>
<path d="M1601 1203 c-46 -39 -43 -128 6 -160 25 -17 87 -18 953 -18 866 0
928 1 953 18 49 32 52 121 6 160 -20 16 -81 17 -959 17 -878 0 -939 -1 -959
-17z"/>
<path d="M899 681 c-40 -40 -40 -89 0 -133 l29 -33 726 -3 c804 -3 773 -5 801
61 18 43 9 82 -27 112 l-30 25 -735 0 -735 0 -29 -29z"/>
<path d="M2707 699 c-22 -13 -47 -61 -47 -93 0 -14 13 -40 29 -58 l29 -33 737
0 737 0 29 33 c40 44 40 93 0 133 l-29 29 -734 0 c-479 -1 -739 -4 -751 -11z"/>
<path d="M2238 184 c-69 -37 -64 -136 9 -173 30 -15 596 -15 626 0 35 18 57
51 57 89 0 38 -22 71 -57 89 -15 7 -118 11 -315 11 -239 -1 -298 -4 -320 -16z"/>
</g>
</svg>
